<?xml version="1.0"?>
<mxfile host="Electron" modified="2022-06-09T17:40:53.447Z" agent="5.0 (X11; Linux x86_64) AppleWebKit/537.36 (KHTML, like Gecko) draw.io/18.1.3 Chrome/100.0.4896.143 Electron/18.2.3 Safari/537.36" etag="Z8up7AF4Ajygoe6ttKQU" version="18.1.3">
  <diagram id="2w3rlBuwyKFRRnQegnk7" name="Page-1">
    <mxGraphModel dx="2" dy="1" grid="1" gridSize="10" guides="1" tooltips="1" connect="1" arrows="1" fold="1" page="1" pageScale="1" pageWidth="850" pageHeight="1100" math="0" shadow="0">
      <root>
        <mxCell id="0"/>
        <mxCell id="1" parent="0"/>
        <mxCell id="cVM2-KgQ-0EgViaqr7lM-7" value="" style="rounded=1;whiteSpace=wrap;html=1;sketch=1;gradientDirection=east;fillColor=#f8cecc;strokeColor=none;rotation=90;" parent="1" vertex="1">
          <mxGeometry x="80" y="160" width="80" height="80" as="geometry"/>
        </mxCell>
        <mxCell id="cVM2-KgQ-0EgViaqr7lM-6" value="" style="rounded=1;whiteSpace=wrap;html=1;sketch=1;gradientDirection=east;fillColor=#f8cecc;strokeColor=none;rotation=90;" parent="1" vertex="1">
          <mxGeometry x="180" y="160" width="80" height="80" as="geometry"/>
        </mxCell>
        <mxCell id="cVM2-KgQ-0EgViaqr7lM-2" value="&#x539F;&#x751F;&#x6838;0&lt;br&gt;Native Core 0" style="rounded=1;whiteSpace=wrap;html=1;fillColor=#dae8fc;strokeColor=#6c8ebf;sketch=1;" parent="1" vertex="1">
          <mxGeometry x="80" y="60" width="80" height="80" as="geometry"/>
        </mxCell>
        <mxCell id="cVM2-KgQ-0EgViaqr7lM-3" value="&#x539F;&#x751F;&#x6838;1&lt;br&gt;Native Core 1" style="rounded=1;whiteSpace=wrap;html=1;fillColor=#dae8fc;strokeColor=#6c8ebf;sketch=1;" parent="1" vertex="1">
          <mxGeometry x="180" y="60" width="80" height="80" as="geometry"/>
        </mxCell>
        <mxCell id="cVM2-KgQ-0EgViaqr7lM-4" value="&#x7FFB;&#x8BD1;&#x52A0;&#x5F3A;&#x6838;2&lt;br&gt;Translation Enhanced Core 2" style="rounded=1;whiteSpace=wrap;html=1;fillColor=#dae8fc;strokeColor=#6c8ebf;gradientDirection=east;sketch=1;" parent="1" vertex="1">
          <mxGeometry x="80" y="160" width="80" height="80" as="geometry"/>
        </mxCell>
        <mxCell id="cVM2-KgQ-0EgViaqr7lM-5" value="&#x7FFB;&#x8BD1;&#x52A0;&#x5F3A;&#x6838;3&lt;br&gt;Translation Enhanced Core 3" style="rounded=1;whiteSpace=wrap;html=1;fillColor=#dae8fc;strokeColor=#6c8ebf;gradientDirection=east;sketch=1;" parent="1" vertex="1">
          <mxGeometry x="180" y="160" width="80" height="80" as="geometry"/>
        </mxCell>
      </root>
    </mxGraphModel>
  </diagram>
</mxfile>
